<svg xmlns="http://www.w3.org/2000/svg" width="135.947" height="135.915" viewBox="898 1187.37 135.947 135.915"><g data-name="Icon feather-pie-chart"><path d="M69.508 133.533c-2.938 0-5.88-.191-8.816-.574a67.884 67.884 0 0 1-39.006-19.065 67.885 67.885 0 0 1-19.51-38.786 67.885 67.885 0 0 1 7.948-42.682A67.886 67.886 0 0 1 42.288 3.262a6.18 6.18 0 1 1 4.943 11.327C35.992 19.493 26.893 27.744 20.915 38.45c-5.977 10.706-8.225 22.782-6.503 34.922 1.723 12.14 7.243 23.114 15.962 31.734 8.72 8.62 19.756 14.015 31.915 15.599 12.158 1.584 24.208-.803 34.845-6.902s18.784-15.292 23.56-26.585a6.179 6.179 0 1 1 11.382 4.813 67.885 67.885 0 0 1-28.795 32.493 67.885 67.885 0 0 1-33.773 9.009Z" fill-rule="evenodd" fill="url(&quot;#a&quot;)" transform="translate(896.502 1189.753)" data-name="Path 2084"/><path d="M84.47 75.65H22.68a6.18 6.18 0 0 1-6.18-6.18V7.68a6.18 6.18 0 0 1 6.18-6.18c9.172 0 18.074 1.798 26.458 5.344a67.735 67.735 0 0 1 21.603 14.564 67.736 67.736 0 0 1 14.564 21.603c3.546 8.384 5.344 17.286 5.344 26.46a6.18 6.18 0 0 1-6.179 6.178ZM28.858 63.29h49.096c-1.375-12.517-6.918-24.111-15.951-33.144-9.033-9.033-20.628-14.577-33.145-15.952v49.096Z" fill-rule="evenodd" fill="url(&quot;#b&quot;)" transform="translate(943.298 1185.87)" data-name="Path 2085"/></g><defs><linearGradient x1=".5" y1="0" x2=".5" y2="1" id="a"><stop stop-color="#8125b1" offset="0"/><stop stop-color="#5a95e7" offset="1"/></linearGradient><linearGradient x1=".5" y1="0" x2=".5" y2="1" id="b"><stop stop-color="#8125b1" offset="0"/><stop stop-color="#5a95e7" offset="1"/></linearGradient></defs></svg>