<svg xmlns="http://www.w3.org/2000/svg" width="135.941" height="135.95" viewBox="385 1187.353 135.941 135.95"><g data-name="Icon feather-check-circle"><path d="M69.481 137.44a67.994 67.994 0 0 1-42.256-14.723A67.81 67.81 0 0 1 12.45 106.46 67.895 67.895 0 0 1 1.648 64.992a67.893 67.893 0 0 1 16.154-39.689 67.893 67.893 0 0 1 36.69-22.137 67.895 67.895 0 0 1 42.643 4.213 6.18 6.18 0 1 1-5.03 11.288c-11.038-4.918-23.103-6.11-34.89-3.447-11.787 2.663-22.167 8.926-30.019 18.113-7.851 9.186-12.421 20.415-13.217 32.473-.795 12.058 2.262 23.79 8.839 33.927 6.577 10.138 16.045 17.71 27.38 21.897 11.336 4.188 23.452 4.59 35.04 1.164 11.589-3.426 21.539-10.353 28.774-20.031 7.236-9.679 11.064-21.182 11.07-33.266v-5.682a6.18 6.18 0 0 1 12.359 0V69.5a67.893 67.893 0 0 1-13.53 40.662 67.893 67.893 0 0 1-35.168 24.484 67.836 67.836 0 0 1-19.262 2.794Z" fill-rule="evenodd" fill="url(&quot;#a&quot;)" transform="translate(383.5 1185.862)" data-name="Path 2082"/><path d="M36.716 78.711a6.179 6.179 0 0 1-4.369-1.81L13.81 58.364a6.18 6.18 0 1 1 8.738-8.739l14.166 14.166L94.136 6.312a6.18 6.18 0 1 1 8.743 8.734L41.088 76.9a6.179 6.179 0 0 1-4.37 1.812h-.002Z" fill-rule="evenodd" fill="url(&quot;#b&quot;)" transform="translate(416.255 1195.25)" data-name="Path 2083"/></g><defs><linearGradient x1=".5" y1="0" x2=".5" y2="1" id="a"><stop stop-color="#8125b1" offset="0"/><stop stop-color="#5a95e7" offset="1"/></linearGradient><linearGradient x1=".5" y1="0" x2=".5" y2="1" id="b"><stop stop-color="#8125b1" offset="0"/><stop stop-color="#5a95e7" offset="1"/></linearGradient></defs></svg>