<svg xmlns="http://www.w3.org/2000/svg" width="119.938" height="135.95" viewBox="1411 1187.353 119.938 135.95"><path d="M69.835 33.956c13.444 0 18.429 6.42 18.882 15.86h16.692c-.53-12.99-8.46-24.924-24.245-28.775V4.5H58.506v16.314c-4.003.906-7.78 2.266-11.178 4.078l11.103 11.103c3.096-1.284 6.873-2.04 11.404-2.04Zm-54.153-21.45L6.09 22.098l25.981 25.981c0 15.71 11.783 24.245 29.532 29.532l26.51 26.51c-2.568 3.625-7.93 6.873-18.278 6.873-15.558 0-21.676-6.949-22.507-15.86H30.712c.906 16.54 13.293 25.83 27.794 28.926v16.39h22.658V124.21c7.25-1.36 13.746-4.154 18.504-8.459l16.768 16.767 9.592-9.592L15.682 12.506Z" fill-rule="evenodd" fill="url(&quot;#a&quot;)" transform="translate(1404.91 1182.853)" data-name="Icon material-money-off"/><defs><linearGradient x1=".5" y1="0" x2=".5" y2="1" id="a"><stop stop-color="#8125b1" offset="0"/><stop stop-color="#5a95e7" offset="1"/></linearGradient></defs></svg>